<?xml version="1.0" standalone="no"?>
<!DOCTYPE svg PUBLIC "-//W3C//DTD SVG 20010904//EN"
 "http://www.w3.org/TR/2001/REC-SVG-20010904/DTD/svg10.dtd">
<svg version="1.0" xmlns="http://www.w3.org/2000/svg"
 width="225.000000pt" height="225.000000pt" viewBox="0 0 225.000000 225.000000"
 preserveAspectRatio="xMidYMid meet">

<g transform="translate(0.000000,225.000000) scale(0.100000,-0.100000)"
fill="#000000" stroke="none">
<path d="M1100 2038 c-297 -46 -507 -475 -414 -842 9 -33 26 -80 39 -105 27
-54 91 -131 108 -131 7 0 27 16 46 35 l34 34 -14 63 c-21 94 -19 324 3 364 45
82 138 122 216 93 45 -17 79 -77 90 -162 l7 -58 69 70 70 70 -23 25 c-12 13
-50 39 -84 57 -52 27 -75 34 -143 37 -91 5 -139 -7 -184 -45 l-30 -25 0 24 c0
12 7 59 14 103 38 207 93 310 188 349 50 21 91 20 113 -4 17 -19 17 -29 -1
-117 -14 -70 17 -103 95 -103 119 0 135 156 24 229 -42 28 -67 36 -143 45 -14
2 -50 -1 -80 -6z"/>
<path d="M1534 1512 c-4 -13 -10 -19 -13 -13 -4 6 -11 3 -19 -9 -6 -10 -8 -21
-3 -24 12 -8 54 41 48 56 -4 8 -8 5 -13 -10z"/>
<path d="M1460 1430 c-8 -5 -12 -12 -9 -15 4 -3 12 1 19 10 14 17 11 19 -10 5z"/>
<path d="M1340 1166 l-106 -103 -12 -75 c-14 -79 -51 -169 -104 -246 -17 -26
-105 -122 -195 -213 -90 -91 -163 -173 -163 -182 0 -16 31 -17 360 -17 l360 0
0 171 c0 156 -1 170 -17 167 -11 -2 -20 -18 -26 -45 -10 -51 -53 -98 -98 -107
-43 -8 -359 -8 -359 1 0 4 51 57 112 117 299 294 357 378 366 525 7 125 3 126
-118 7z"/>
<path d="M740 735 c-19 -19 -35 -45 -37 -57 -3 -20 2 -17 37 17 22 21 40 41
40 44 0 3 -5 0 -12 -7 -17 -17 -33 -15 -18 3 7 8 21 15 32 15 10 0 16 5 13 10
-10 16 -19 12 -55 -25z"/>
</g>
</svg>
