<?xml version="1.0" standalone="no"?>
<!DOCTYPE svg PUBLIC "-//W3C//DTD SVG 20010904//EN"
 "http://www.w3.org/TR/2001/REC-SVG-20010904/DTD/svg10.dtd">
<svg version="1.0" xmlns="http://www.w3.org/2000/svg"
 width="142.000000pt" height="274.000000pt" viewBox="0 0 142.000000 274.000000"
 preserveAspectRatio="xMidYMid meet">

<g transform="translate(0.000000,274.000000) scale(0.100000,-0.100000)"
fill="currentColor" stroke="none">
<path d="M360 2511 l-335 -187 -3 -303 c-1 -203 1 -300 8 -296 6 4 10 110 10
295 l0 289 198 109 c108 60 220 122 247 137 28 15 55 31 60 35 6 4 45 26 88
49 l78 42 332 -184 332 -184 3 -288 c1 -173 6 -293 12 -299 7 -7 10 95 10 294
l-1 305 -335 185 c-184 102 -343 186 -352 187 -9 1 -168 -82 -352 -186z"/>
<path d="M398 2449 l-308 -171 0 -296 0 -296 -37 -38 -37 -38 37 -38 37 -38 0
-226 c0 -141 4 -229 10 -233 7 -4 10 76 10 232 l0 239 35 34 35 34 -35 36 -35
36 0 294 0 295 98 52 c53 29 113 62 132 73 19 11 111 62 203 113 l168 94 297
-165 c163 -91 300 -170 304 -176 4 -6 8 -137 8 -291 l0 -281 -40 -39 -40 -39
40 -41 41 -42 -3 -231 c-2 -128 0 -232 5 -232 4 0 7 104 7 232 l0 232 37 38
37 38 -37 38 -37 38 -2 297 -3 298 -305 170 c-167 93 -307 169 -310 169 -3 0
-143 -77 -312 -171z m-266 -806 l28 -27 -27 -28 c-33 -34 -43 -35 -73 -3 l-24
25 29 30 c16 17 31 30 34 30 3 0 18 -12 33 -27z m1221 2 c15 -14 27 -29 27
-32 0 -4 -12 -20 -27 -35 l-27 -28 -33 32 -33 32 27 28 c15 15 29 28 32 28 4
0 19 -11 34 -25z"/>
<path d="M684 2371 c-142 -34 -251 -170 -290 -360 -29 -144 -1 -277 76 -363
l39 -43 30 30 c28 28 30 33 21 70 -16 69 -12 233 6 265 34 57 128 80 172 43
23 -21 42 -73 42 -117 l0 -31 52 52 52 52 -28 30 c-61 64 -211 81 -277 32
l-30 -23 6 49 c24 171 88 279 172 290 56 7 69 -11 52 -76 -11 -46 -11 -52 6
-71 25 -27 88 -27 115 0 32 32 27 85 -13 125 -48 48 -122 65 -203 46z"/>
<path d="M965 1962 c-267 -252 -585 -567 -585 -579 0 -9 105 85 232 208 128
123 275 265 327 315 51 50 92 95 90 102 -2 6 -31 -15 -64 -46z"/>
<path d="M875 1760 c-74 -74 -80 -84 -92 -141 -19 -93 -64 -159 -205 -298 -71
-69 -128 -131 -128 -138 0 -10 57 -13 265 -13 l265 0 0 120 c0 100 -2 120 -15
120 -9 0 -15 -9 -15 -24 0 -15 -13 -36 -35 -55 l-36 -31 -131 0 -132 0 146
148 c176 178 200 218 196 323 l-3 70 -80 -81z"/>
<path d="M20 1326 c0 -112 4 -187 10 -191 7 -4 10 58 10 179 0 112 -4 187 -10
191 -7 4 -10 -58 -10 -179z"/>
<path d="M1388 1504 c-5 -4 -8 -93 -8 -198 0 -129 3 -187 10 -180 7 7 9 80 8
198 -2 103 -6 184 -10 180z"/>
<path d="M710 993 c-35 -13 -60 -47 -60 -80 0 -27 11 -46 61 -99 66 -71 76
-109 29 -109 -20 0 -26 6 -28 28 -3 23 -8 27 -33 27 -26 0 -29 -3 -29 -30 0
-47 39 -80 93 -80 56 0 87 30 87 83 0 31 -9 46 -61 101 -44 48 -60 71 -57 88
4 30 40 31 53 1 14 -33 65 -32 65 0 0 44 -75 88 -120 70z"/>
<path d="M1290 983 c-32 -16 -35 -23 -38 -66 -3 -45 -1 -50 52 -106 40 -41 56
-66 56 -85 0 -23 -4 -27 -22 -24 -17 2 -24 11 -26 31 -3 23 -8 27 -33 27 -26
0 -29 -3 -29 -34 0 -44 37 -76 89 -76 57 0 81 23 81 77 0 40 -6 51 -56 108
-39 46 -55 71 -52 87 4 31 42 32 46 1 3 -18 10 -23 33 -23 25 0 29 4 29 28 0
57 -69 86 -130 55z"/>
<path d="M40 820 l0 -170 30 0 30 0 0 70 c0 91 16 91 55 0 27 -62 33 -70 58
-70 33 0 33 9 -1 84 l-28 60 23 22 c18 18 23 34 23 78 0 76 -26 96 -121 96
l-69 0 0 -170z m134 104 c19 -48 -1 -84 -46 -84 -27 0 -28 2 -28 50 l0 50 34
0 c22 0 36 -6 40 -16z"/>
<path d="M371 964 c-19 -24 -21 -40 -21 -146 0 -113 1 -120 25 -143 33 -34
102 -35 133 -2 20 21 22 34 22 155 0 124 -1 132 -22 146 -13 9 -43 16 -69 16
-39 0 -51 -5 -68 -26z m94 -139 l0 -120 -25 0 c-25 0 -25 0 -28 109 -3 112 5
140 37 134 14 -3 16 -21 16 -123z"/>
<path d="M1006 978 c-8 -25 -66 -308 -66 -318 0 -6 12 -10 28 -8 23 3 27 8 30
41 3 35 5 37 37 37 31 0 34 -3 40 -40 6 -36 10 -40 36 -40 32 0 32 -1 20 55
-5 22 -18 87 -30 145 -31 146 -28 140 -62 140 -16 0 -31 -6 -33 -12z m47 -160
c5 -34 3 -38 -15 -38 -18 0 -20 4 -14 38 3 20 6 46 7 57 l0 20 8 -20 c4 -11
11 -37 14 -57z"/>
<path d="M97 543 c-4 -3 -7 -27 -7 -52 l0 -46 143 -80 c78 -43 158 -88 177
-98 19 -11 95 -53 167 -94 l133 -74 310 173 310 173 -2 55 -2 55 -3 -51 -4
-51 -142 -78 c-78 -43 -215 -118 -305 -168 l-163 -89 -222 123 c-122 67 -238
131 -257 142 -127 70 -125 68 -120 140 2 27 -1 32 -13 20z"/>
<path d="M393 523 c13 -4 17 -15 17 -59 0 -30 5 -54 10 -54 6 0 10 24 10 54 0
34 5 56 13 59 6 3 -6 5 -28 5 -22 0 -32 -2 -22 -5z"/>
<path d="M517 516 c-13 -34 -19 -106 -8 -106 6 0 11 7 11 15 0 8 7 15 15 15 8
0 15 -7 15 -15 0 -8 5 -15 11 -15 7 0 9 9 6 23 -3 12 -9 39 -12 60 -7 37 -28
50 -38 23z m20 -58 c-3 -8 -6 -5 -6 6 -1 11 2 17 5 13 3 -3 4 -12 1 -19z"/>
<path d="M628 523 c7 -3 12 -25 12 -59 0 -30 5 -54 10 -54 6 0 10 24 10 54 0
34 5 56 13 59 6 3 -4 5 -23 5 -19 0 -29 -2 -22 -5z"/>
<path d="M738 523 c8 -3 12 -26 12 -65 0 -78 24 -76 28 3 2 29 9 57 15 61 7 4
-6 7 -28 7 -22 0 -34 -3 -27 -6z"/>
<path d="M847 523 c-4 -3 -7 -28 -7 -53 0 -53 17 -75 50 -65 17 5 20 15 20 66
0 58 0 59 -28 59 -16 0 -32 -3 -35 -7z m43 -59 c0 -24 -4 -44 -10 -44 -5 0
-10 23 -10 51 0 31 4 48 10 44 6 -3 10 -26 10 -51z"/>
<path d="M967 524 c-14 -14 -7 -101 9 -115 29 -24 49 1 49 62 0 50 -2 54 -25
57 -14 2 -29 0 -33 -4z m41 -60 c-2 -22 -7 -39 -13 -39 -12 0 -19 60 -10 83
10 28 27 -3 23 -44z"/>
<path d="M28 484 c-5 -4 -8 -24 -8 -44 l0 -36 188 -104 c103 -57 203 -113 222
-123 19 -11 90 -51 158 -88 l123 -68 127 71 c70 39 150 83 177 98 161 88 349
192 365 203 22 13 29 80 10 92 -6 4 -10 -9 -10 -32 l0 -38 -157 -88 c-87 -48
-180 -100 -208 -115 -172 -97 -296 -162 -307 -162 -7 0 -78 37 -158 83 -80 45
-228 127 -327 182 l-182 100 -3 38 c-2 22 -6 35 -10 31z"/>
</g>
</svg>
